<svg version="1.1" xmlns="http://www.w3.org/2000/svg" xmlns:xlink="http://www.w3.org/1999/xlink" width="400" height="400" viewBox="0 0 400 400">
<g id="Tenicles-Dark">
<path id="Shape-1" d="M33.202,154.952 C33.202,154.952 87.226,154.952 87.226,154.952 C94.613,154.952 100.601,160.940 100.601,168.327 C100.601,168.327 100.601,170.632 100.601,170.632 C100.601,178.019 94.613,184.007 87.226,184.007 C87.226,184.007 33.202,184.007 33.202,184.007 C25.816,184.007 19.828,178.019 19.828,170.632 C19.828,170.632 19.828,168.327 19.828,168.327 C19.828,160.940 25.816,154.952 33.202,154.952 z" fill="#333333" />
<path id="Shape-2" d="M28.868,128.664 C28.868,128.664 44.840,162.871 44.840,162.871 C47.965,169.564 45.073,177.523 38.380,180.648 C38.380,180.648 35.764,181.870 35.764,181.870 C29.071,184.995 21.112,182.102 17.987,175.409 C17.987,175.409 2.015,141.202 2.015,141.202 C-1.111,134.509 1.782,126.550 8.475,123.425 C8.475,123.425 11.090,122.203 11.090,122.203 C17.783,119.078 25.743,121.971 28.868,128.664 z" fill="#333333" />
<path id="Shape-1-copy-4" d="M219.713,45.159 C219.713,45.159 219.713,94.295 219.713,94.295 C219.713,98.358 216.419,101.651 212.357,101.651 C212.357,101.651 211.089,101.651 211.089,101.651 C207.026,101.651 203.733,98.358 203.733,94.295 C203.733,94.295 203.733,45.159 203.733,45.159 C203.733,41.096 207.026,37.803 211.089,37.803 C211.089,37.803 212.357,37.803 212.357,37.803 C216.419,37.803 219.713,41.096 219.713,45.159 z" fill="#333333" />
<path id="Shape-2-copy-4" d="M234.172,42.775 C234.172,42.775 215.358,51.560 215.358,51.560 C211.676,53.278 207.299,51.688 205.580,48.007 C205.580,48.007 204.908,46.568 204.908,46.568 C203.189,42.887 204.780,38.509 208.461,36.790 C208.461,36.790 227.276,28.006 227.276,28.006 C230.957,26.287 235.334,27.878 237.053,31.559 C237.053,31.559 237.725,32.997 237.725,32.997 C239.444,36.679 237.853,41.056 234.172,42.775 z" fill="#333333" />
<path id="Shape-1-copy-5" d="M172.636,45.159 C172.636,45.159 172.636,94.295 172.636,94.295 C172.636,98.358 175.929,101.651 179.992,101.651 C179.992,101.651 181.260,101.651 181.260,101.651 C185.323,101.651 188.616,98.358 188.616,94.295 C188.616,94.295 188.616,45.159 188.616,45.159 C188.616,41.096 185.323,37.803 181.260,37.803 C181.260,37.803 179.992,37.803 179.992,37.803 C175.929,37.803 172.636,41.096 172.636,45.159 z" fill="#333333" />
<path id="Shape-2-copy-5" d="M158.177,42.775 C158.177,42.775 176.991,51.560 176.991,51.560 C180.672,53.278 185.050,51.688 186.769,48.007 C186.769,48.007 187.441,46.568 187.441,46.568 C189.159,42.887 187.569,38.509 183.887,36.790 C183.887,36.790 165.073,28.006 165.073,28.006 C161.392,26.287 157.015,27.878 155.296,31.559 C155.296,31.559 154.624,32.997 154.624,32.997 C152.905,36.679 154.496,41.056 158.177,42.775 z" fill="#333333" />
<path id="Shape-1-copy" d="M366.802,154.952 C366.802,154.952 312.778,154.952 312.778,154.952 C305.392,154.952 299.404,160.940 299.404,168.327 C299.404,168.327 299.404,170.632 299.404,170.632 C299.404,178.019 305.392,184.007 312.778,184.007 C312.778,184.007 366.802,184.007 366.802,184.007 C374.188,184.007 380.177,178.019 380.177,170.632 C380.177,170.632 380.177,168.327 380.177,168.327 C380.177,160.940 374.188,154.952 366.802,154.952 z" fill="#333333" />
<path id="Shape-2-copy" d="M371.132,128.664 C371.132,128.664 355.160,162.871 355.160,162.871 C352.035,169.564 354.927,177.523 361.620,180.648 C361.620,180.648 364.236,181.870 364.236,181.870 C370.929,184.995 378.888,182.102 382.013,175.409 C382.013,175.409 397.985,141.202 397.985,141.202 C401.110,134.509 398.218,126.550 391.525,123.425 C391.525,123.425 388.909,122.203 388.909,122.203 C382.216,119.078 374.257,121.971 371.132,128.664 z" fill="#333333" />
<path id="Shape-1-copy-2" d="M44.973,297.156 C44.973,297.156 98.996,297.156 98.996,297.156 C106.383,297.156 112.371,291.168 112.371,283.781 C112.371,283.781 112.371,281.476 112.371,281.476 C112.371,274.089 106.383,268.101 98.996,268.101 C98.996,268.101 44.973,268.101 44.973,268.101 C37.586,268.101 31.598,274.089 31.598,281.476 C31.598,281.476 31.598,283.781 31.598,283.781 C31.598,291.168 37.586,297.156 44.973,297.156 z" fill="#333333" />
<path id="Shape-2-copy-2" d="M40.638,323.444 C40.638,323.444 56.610,289.237 56.610,289.237 C59.735,282.544 56.843,274.585 50.150,271.460 C50.150,271.460 47.534,270.238 47.534,270.238 C40.841,267.113 32.882,270.006 29.757,276.699 C29.757,276.699 13.785,310.906 13.785,310.906 C10.660,317.599 13.552,325.558 20.245,328.683 C20.245,328.683 22.861,329.905 22.861,329.905 C29.554,333.030 37.513,330.137 40.638,323.444 z" fill="#333333" />
<path id="Shape-1-copy-3" d="M354.911,297.156 C354.911,297.156 300.887,297.156 300.887,297.156 C293.501,297.156 287.513,291.168 287.513,283.781 C287.513,283.781 287.513,281.476 287.513,281.476 C287.513,274.089 293.501,268.101 300.887,268.101 C300.887,268.101 354.911,268.101 354.911,268.101 C362.297,268.101 368.286,274.089 368.286,281.476 C368.286,281.476 368.286,283.781 368.286,283.781 C368.286,291.168 362.297,297.156 354.911,297.156 z" fill="#333333" />
<path id="Shape-2-copy-3" d="M359.241,323.444 C359.241,323.444 343.269,289.237 343.269,289.237 C340.144,282.544 343.036,274.585 349.729,271.460 C349.729,271.460 352.345,270.238 352.345,270.238 C359.038,267.113 366.997,270.006 370.122,276.699 C370.122,276.699 386.094,310.906 386.094,310.906 C389.219,317.599 386.327,325.558 379.634,328.683 C379.634,328.683 377.018,329.905 377.018,329.905 C370.325,333.030 362.366,330.137 359.241,323.444 z" fill="#333333" />
</g>
<path id="Body-Dark" d="M196.941,70.197 C274.281,70.197 336.977,132.893 336.977,210.233 C336.977,287.573 274.281,350.270 196.941,350.270 C119.601,350.270 56.904,287.573 56.904,210.233 C56.904,132.893 119.601,70.197 196.941,70.197 z" fill="#333333" />
<g id="SC-Logo">
<g id="Horizontal">
<g id="Lightspeed_datab">
</g>
<g id="Starcounter_1_">
<g id="White_2_">
<g id="group">
<path id="Color-Fill-2" d="M61.949,210.233 C61.949,246.577 76.345,279.499 99.709,303.807 C108.559,294.839 117.527,286.107 126.023,277.611 C154.933,248.937 182.309,221.797 200.717,200.439 C225.497,171.765 226.205,162.325 224.435,159.139 C224.317,159.021 224.317,159.021 224.317,159.021 C222.665,155.835 216.411,155.127 211.455,155.127 C188.563,155.127 141.481,168.697 63.011,193.477 C62.303,199.023 61.949,204.569 61.949,210.233 z" fill="#F7B717" />
<path id="Color-Fill-3" d="M196.941,345.343 C198.239,345.343 199.655,345.343 200.953,345.225 C243.669,257.787 274.467,194.775 261.251,185.453 C260.307,184.745 259.009,184.391 257.357,184.391 C235.291,184.391 174.521,242.801 130.035,285.399 C121.421,293.777 113.043,301.801 105.137,309.235 C129.209,331.655 161.541,345.343 196.941,345.343 z" fill="#F27E20" />
<path id="Color-Fill-4" d="M217.709,329.059 C215.113,334.133 212.517,339.325 209.803,344.753 C248.035,341.095 281.547,321.507 303.849,292.715 C303.849,280.915 303.495,263.923 302.905,242.683 C302.787,236.429 302.787,236.429 302.787,236.429 C301.843,206.811 298.067,202.091 295.825,201.973 C295.707,201.973 295.707,201.973 295.707,201.973 C295.471,201.973 295.235,201.973 295.117,201.973 C281.783,201.973 257.711,249.763 217.709,329.059 z" fill="#F27E20" />
<path id="Color-Fill-5" d="M316.829,215.779 C315.295,231.945 314.233,251.415 312.935,274.071 C312.817,275.959 312.699,277.965 312.581,279.853 C324.853,259.557 331.933,235.603 331.933,210.233 C331.933,210.233 331.933,210.115 331.933,210.115 C326.741,201.855 326.741,201.855 326.741,201.855 C326.033,200.557 325.089,199.731 324.263,199.731 C322.375,199.731 318.009,203.743 316.829,215.779 z" fill="#F27E20" />
<path id="Color-Fill-6" d="M64.191,185.335 C106.435,171.647 148.561,157.723 176.055,146.513 C210.747,132.353 214.523,125.627 214.523,123.385 C214.523,113.473 188.799,106.275 122.719,97.543 C92.747,117.367 71.153,148.755 64.191,185.335 z" fill="#F27E20" />
<path id="Color-Fill-7" d="M208.033,97.307 C219.597,97.307 222.429,95.183 223.609,93.413 C224.317,92.115 224.199,90.699 223.963,89.755 C223.255,86.923 220.659,84.091 217.001,81.967 C206.027,75.595 206.027,75.595 206.027,75.595 C203.077,75.359 200.009,75.241 196.941,75.241 C174.167,75.241 152.691,80.905 133.811,90.935 C164.727,94.357 191.159,97.071 208.033,97.307 z" fill="#F27E20" />
<path id="Shape-2" d="M196.941,71.583 C273.515,71.583 335.591,133.659 335.591,210.233 C335.591,286.807 273.515,348.883 196.941,348.883 C120.367,348.883 58.291,286.807 58.291,210.233 C58.291,133.659 120.367,71.583 196.941,71.583 z" fill="#000000" fill-opacity="0.000" />
</g>
</g>
</g>
</g>
<g id="Vertical">
<g id="Starcounter">
</g>
<g id="Lightspeed_Datab">
</g>
</g>
</g>
</svg>
